<?xml version="1.0" encoding="UTF-8" standalone="no"?><!-- Generator: Gravit.io --><svg xmlns="http://www.w3.org/2000/svg" xmlns:xlink="http://www.w3.org/1999/xlink" style="isolation:isolate" viewBox="0 0 1080 1080" width="1080pt" height="1080pt"><defs><clipPath id="_clipPath_cydabeaxeJKmLzjEINWaK1qNxWZZCB2n"><rect width="1080" height="1080"/></clipPath></defs><g clip-path="url(#_clipPath_cydabeaxeJKmLzjEINWaK1qNxWZZCB2n)"><path d=" M 568.082 874.147 C 562.329 884.252 551.592 890.5 539.968 890.5 C 528.361 890.5 517.607 884.252 511.854 874.147 C 435.519 740.15 225.016 370.729 149.329 237.876 C 143.628 227.856 143.696 215.566 149.465 205.597 C 155.269 195.628 165.921 189.5 177.46 189.5 C 329.499 189.5 750.488 189.5 902.528 189.5 C 914.05 189.5 924.718 195.645 930.522 205.597 C 936.325 215.566 936.36 227.856 930.658 237.876 C 854.954 370.729 644.468 740.167 568.099 874.147 L 568.082 874.147 Z " fill-rule="evenodd" fill="rgb(255,51,0)"/></g></svg>