<?xml version="1.0" encoding="UTF-8" standalone="no"?><!-- Generator: Gravit.io --><svg xmlns="http://www.w3.org/2000/svg" xmlns:xlink="http://www.w3.org/1999/xlink" style="isolation:isolate" viewBox="0 0 1080 1080" width="1080pt" height="1080pt"><defs><clipPath id="_clipPath_uwhs15mScVk7bzzSvEh8wGECvNQAU7Li"><rect width="1080" height="1080"/></clipPath></defs><g clip-path="url(#_clipPath_uwhs15mScVk7bzzSvEh8wGECvNQAU7Li)"><path d=" M 511.918 205.853 C 517.671 195.748 528.408 189.5 540.032 189.5 C 551.639 189.5 562.393 195.748 568.146 205.853 C 644.481 339.85 854.984 709.271 930.671 842.124 C 936.372 852.144 936.304 864.434 930.535 874.403 C 924.731 884.372 914.079 890.5 902.54 890.5 C 750.501 890.5 329.512 890.5 177.472 890.5 C 165.95 890.5 155.282 884.355 149.478 874.403 C 143.675 864.434 143.64 852.144 149.342 842.124 C 225.046 709.271 435.532 339.833 511.901 205.853 L 511.918 205.853 Z " fill-rule="evenodd" fill="rgb(51,204,51)"/></g></svg>